<svg id="Layer_1" data-name="Layer 1" xmlns="http://www.w3.org/2000/svg" viewBox="0 0 44 44"><defs><style>.cls-1{fill:#fff;}</style></defs><path class="cls-1" d="M40.3,26.12H44l-1.49-3.23H30.21V17.05A15.11,15.11,0,0,0,15.11,1.94h-1l-.27,0h-.15l-.28,0-.14,0-.3,0h-.11c-.42.06-.83.14-1.24.24h0l-.36.09-.05,0-.36.1h0A15.13,15.13,0,0,0,3.23,7.71V0L0,1.49V44l3.23-1.49V40.74h0V26.12H27V40.74h0V44l3.23-1.49V26.12H40.3ZM15.11,5.75A11.87,11.87,0,0,1,27,17.62v5.27H3.23V17.62A11.87,11.87,0,0,1,15.11,5.75Z"/></svg>